<?xml version="1.0" encoding="UTF-8" standalone="no"?>
<!-- Generator: Adobe Illustrator 15.0.0, SVG Export Plug-In  -->

<svg
   version="1.1"
   x="0px"
   y="0px"
   width="200"
   height="200"
   viewBox="0 4.747 200 200"
   enable-background="new 0 4.747 400 98"
   xml:space="preserve"
   id="svg22"
   sodipodi:docname="Nabla-favicon.svg"
   inkscape:version="1.3 (0e150ed, 2023-07-21)"
   inkscape:export-filename="Nabla-favicon.png"
   inkscape:export-xdpi="92.160004"
   inkscape:export-ydpi="92.160004"
   xmlns:inkscape="http://www.inkscape.org/namespaces/inkscape"
   xmlns:sodipodi="http://sodipodi.sourceforge.net/DTD/sodipodi-0.dtd"
   xmlns="http://www.w3.org/2000/svg"
   xmlns:svg="http://www.w3.org/2000/svg"
   xmlns:rdf="http://www.w3.org/1999/02/22-rdf-syntax-ns#"
   xmlns:cc="http://creativecommons.org/ns#"
   xmlns:dc="http://purl.org/dc/elements/1.1/"><metadata
   id="metadata26"><rdf:RDF><cc:Work
       rdf:about=""><dc:format>image/svg+xml</dc:format><dc:type
         rdf:resource="http://purl.org/dc/dcmitype/StillImage" /></cc:Work></rdf:RDF></metadata><sodipodi:namedview
   pagecolor="#ffffff"
   bordercolor="#666666"
   borderopacity="1"
   objecttolerance="10"
   gridtolerance="10"
   guidetolerance="10"
   inkscape:pageopacity="0"
   inkscape:pageshadow="2"
   inkscape:window-width="1640"
   inkscape:window-height="1041"
   id="namedview24"
   showgrid="false"
   inkscape:zoom="1.5055896"
   inkscape:cx="39.187305"
   inkscape:cy="103.61389"
   inkscape:window-x="0"
   inkscape:window-y="43"
   inkscape:window-maximized="1"
   inkscape:current-layer="svg22"
   inkscape:showpageshadow="2"
   inkscape:pagecheckerboard="0"
   inkscape:deskcolor="#d1d1d1"
   showguides="false" />&#10;<defs
   id="defs2">&#10;</defs>&#10;&#10;&#10;&#10;<circle
   style="fill:#1353c8;fill-opacity:1;stroke-width:0.602181;stroke-linejoin:round"
   id="path1"
   cx="100"
   cy="104.747"
   r="100"
   inkscape:label="Background" /><g
   inkscape:groupmode="layer"
   id="layer3"
   inkscape:label="Nabla"
   transform="translate(32.707576,40.141349)"
   style="display:inline;fill:#f09509;fill-opacity:1"
   sodipodi:insensitive="true"><path
     id="path850"
     d="m -13.761657,43.894853 c 1.2074,-2.355287 2.263876,-4.710573 3.320351,-7.065861 2.2638772,-4.563366 4.6786772,-8.832322 8.149952,-12.659664 1.0564759,-1.030438 2.11294983,-2.060875 3.16942483,-2.944107 C 2.2363958,20.194783 3.8965707,19.900372 5.5567458,19.753168 10.537273,19.458755 15.668724,19.164344 20.64925,19.311551 c 13.8851,0.441617 27.770202,1.177643 41.655305,1.472054 9.508275,0.294409 19.016548,0.147203 28.675756,0 5.584225,-0.147206 11.319379,-0.588822 16.903619,-1.177644 6.94254,-0.588823 12.8286,-3.532928 17.96007,-8.243503 3.77313,-3.5329285 7.69717,-6.7714489 12.074,-9.5683514 0.60371,-0.441616 1.35833,-0.88323324 2.11294,-1.17764424 0.30185,-0.147206 0.90554,-0.147206 1.20741,-0.147206 -0.15099,0.441617 0,0.88323424 -0.30187,1.17764524 -0.90554,1.177643 -1.66015,2.3552859 -2.71664,3.3857235 -6.6407,7.8018879 -12.97956,15.6037739 -18.86563,23.7000709 -6.48976,8.832324 -12.67768,17.959059 -18.11099,27.380206 -8.451809,14.426129 -15.545288,29.44108 -20.525817,45.192038 -1.358321,4.41617 -2.414801,8.83232 -3.471272,13.24848 -0.452774,2.06088 -1.660175,3.82735 -2.867575,5.59381 -4.678675,6.32984 -9.961051,11.92364 -16.148977,16.78142 -0.754625,0.58883 -1.660175,1.17764 -2.565725,1.61926 -1.056477,0.58882 -1.509251,0.29441 -2.112953,-0.58883 C 49.626853,131.48205 45.702802,124.85779 41.929677,118.38077 32.421401,102.04097 23.516825,85.406773 15.215949,68.478155 11.895598,61.706706 8.7261735,54.935257 5.4058213,48.311015 4.9530474,47.427783 4.5002717,46.691755 4.0474957,45.808524 c -0.452775,-0.883234 -1.2074,-1.32485 -2.263875,-1.619262 -3.9240498,-0.883233 -7.8481005,-0.883233 -11.7721505,-0.58882 -1.2074002,0 -2.4148022,0.147203 -3.7731272,0.294411 z m 46.786758,-1.913671 c 0.150923,0.441616 0.150923,0.736027 0.301851,1.030437 1.509248,3.827343 2.867574,7.654681 4.527749,11.334816 5.4333,12.070844 11.923077,23.552866 19.016552,34.740478 2.263875,3.532925 4.678676,6.771448 7.244403,10.157156 1.207399,1.619261 1.811099,1.472051 2.867574,-0.14721 1.358326,-1.91366 2.565725,-3.827318 3.622201,-5.888202 4.980525,-9.568344 9.659201,-19.136692 14.639721,-28.557841 3.92406,-7.507474 7.999029,-14.867745 12.97957,-21.786399 0.30184,-0.441615 0.60369,-0.88323 1.05646,-1.619258 C 97.31917,41.097954 95.658986,40.803543 93.847897,40.803543 85.547002,40.65634 77.095206,40.361926 68.794331,40.509132 58.229579,40.656337 47.664827,41.097953 36.94915,41.539569 c -1.2074,0 -2.565726,0.294413 -3.924049,0.441618 z"
     class="st0"
     inkscape:connector-curvature="0"
     style="fill:#f09509;fill-opacity:1;stroke:none;stroke-width:1.49053;stroke-opacity:1"
     inkscape:label="triangle" /><path
     id="path852"
     d="M 67.684532,96.674633 C 66.929908,95.791385 66.326208,94.908159 65.722507,94.024934 59.383656,84.603786 53.497579,74.888231 47.913356,64.878265 45.800405,60.903716 43.83838,56.929173 41.876353,52.807421 41.574503,52.2186 41.423578,51.482572 41.272656,50.746546 c -0.150923,-0.736028 0.150922,-1.030439 0.905549,-1.177643 1.2074,-0.147206 1.660175,0 2.263875,1.030436 6.037001,10.598787 11.923076,21.050374 17.960078,31.649163 2.112949,3.680133 4.074974,7.360272 6.187925,11.040402 0.452775,1.324856 0.150924,2.502481 -0.905551,3.385729 z"
     class="st0"
     inkscape:connector-curvature="0"
     style="fill:#f09509;fill-opacity:1;stroke:none;stroke-width:1.49053;stroke-opacity:1"
     inkscape:label="dash" /></g><style
   id="style848"
   type="text/css">&#10;	.st0{fill:#FFFFFF;}&#10;</style></svg>
